<mxfile host="app.diagrams.net" modified="2024-04-28T12:30:16.315Z" agent="Mozilla/5.0 (Windows NT 10.0; Win64; x64) AppleWebKit/537.36 (KHTML, like Gecko) Chrome/124.0.0.0 Safari/537.36" etag="caON5T9ab2rS72PxV1b2" version="24.2.8" type="device">
  <diagram name="Page-1" id="_LCr8pzjU3IR6YzpkM7A">
    <mxGraphModel dx="1884" dy="458" grid="1" gridSize="10" guides="1" tooltips="1" connect="1" arrows="1" fold="1" page="1" pageScale="1" pageWidth="850" pageHeight="1100" math="0" shadow="0">
      <root>
        <mxCell id="0" />
        <mxCell id="1" parent="0" />
        <mxCell id="db7eTrHwo0noK78gcjz7-17" style="edgeStyle=orthogonalEdgeStyle;rounded=0;orthogonalLoop=1;jettySize=auto;html=1;exitX=0;exitY=1;exitDx=0;exitDy=0;startArrow=none;startFill=0;endArrow=none;endFill=0;" parent="1" source="db7eTrHwo0noK78gcjz7-1" target="db7eTrHwo0noK78gcjz7-5" edge="1">
          <mxGeometry relative="1" as="geometry">
            <Array as="points">
              <mxPoint x="-50" y="150" />
              <mxPoint x="-490" y="150" />
            </Array>
          </mxGeometry>
        </mxCell>
        <mxCell id="db7eTrHwo0noK78gcjz7-18" style="edgeStyle=orthogonalEdgeStyle;rounded=0;orthogonalLoop=1;jettySize=auto;html=1;exitX=1;exitY=1;exitDx=0;exitDy=0;endArrow=none;endFill=0;" parent="1" source="db7eTrHwo0noK78gcjz7-1" target="db7eTrHwo0noK78gcjz7-3" edge="1">
          <mxGeometry relative="1" as="geometry">
            <Array as="points">
              <mxPoint x="50" y="120" />
              <mxPoint x="270" y="120" />
            </Array>
          </mxGeometry>
        </mxCell>
        <mxCell id="db7eTrHwo0noK78gcjz7-19" style="edgeStyle=orthogonalEdgeStyle;rounded=0;orthogonalLoop=1;jettySize=auto;html=1;exitX=0.5;exitY=1;exitDx=0;exitDy=0;endArrow=none;endFill=0;" parent="1" source="db7eTrHwo0noK78gcjz7-1" target="db7eTrHwo0noK78gcjz7-4" edge="1">
          <mxGeometry relative="1" as="geometry" />
        </mxCell>
        <mxCell id="db7eTrHwo0noK78gcjz7-20" style="edgeStyle=orthogonalEdgeStyle;rounded=0;orthogonalLoop=1;jettySize=auto;html=1;exitX=1;exitY=0.5;exitDx=0;exitDy=0;endArrow=none;endFill=0;" parent="1" source="db7eTrHwo0noK78gcjz7-1" edge="1">
          <mxGeometry relative="1" as="geometry">
            <mxPoint x="560" y="260" as="targetPoint" />
          </mxGeometry>
        </mxCell>
        <mxCell id="db7eTrHwo0noK78gcjz7-1" value="PMS" style="html=1;dashed=0;whiteSpace=wrap;" parent="1" vertex="1">
          <mxGeometry x="-50" y="80" width="100" height="50" as="geometry" />
        </mxCell>
        <mxCell id="db7eTrHwo0noK78gcjz7-2" value="Student" style="html=1;dashed=0;whiteSpace=wrap;" parent="1" vertex="1">
          <mxGeometry x="510" y="270" width="100" height="50" as="geometry" />
        </mxCell>
        <mxCell id="db7eTrHwo0noK78gcjz7-28" style="edgeStyle=orthogonalEdgeStyle;rounded=0;orthogonalLoop=1;jettySize=auto;html=1;exitX=0;exitY=1;exitDx=0;exitDy=0;entryX=0.25;entryY=0;entryDx=0;entryDy=0;endArrow=none;endFill=0;" parent="1" source="db7eTrHwo0noK78gcjz7-3" target="db7eTrHwo0noK78gcjz7-14" edge="1">
          <mxGeometry relative="1" as="geometry" />
        </mxCell>
        <mxCell id="db7eTrHwo0noK78gcjz7-29" style="edgeStyle=orthogonalEdgeStyle;rounded=0;orthogonalLoop=1;jettySize=auto;html=1;exitX=0.75;exitY=1;exitDx=0;exitDy=0;entryX=0.25;entryY=0;entryDx=0;entryDy=0;endArrow=none;endFill=0;" parent="1" source="db7eTrHwo0noK78gcjz7-3" target="db7eTrHwo0noK78gcjz7-13" edge="1">
          <mxGeometry relative="1" as="geometry">
            <Array as="points">
              <mxPoint x="320" y="310" />
              <mxPoint x="320" y="450" />
            </Array>
          </mxGeometry>
        </mxCell>
        <mxCell id="db7eTrHwo0noK78gcjz7-3" value="Co-ordinator Approval" style="html=1;dashed=0;whiteSpace=wrap;" parent="1" vertex="1">
          <mxGeometry x="220" y="260" width="100" height="50" as="geometry" />
        </mxCell>
        <mxCell id="db7eTrHwo0noK78gcjz7-25" style="edgeStyle=orthogonalEdgeStyle;rounded=0;orthogonalLoop=1;jettySize=auto;html=1;exitX=0;exitY=1;exitDx=0;exitDy=0;endArrow=none;endFill=0;" parent="1" source="db7eTrHwo0noK78gcjz7-4" target="db7eTrHwo0noK78gcjz7-10" edge="1">
          <mxGeometry relative="1" as="geometry" />
        </mxCell>
        <mxCell id="db7eTrHwo0noK78gcjz7-26" style="edgeStyle=orthogonalEdgeStyle;rounded=0;orthogonalLoop=1;jettySize=auto;html=1;exitX=0.5;exitY=1;exitDx=0;exitDy=0;endArrow=none;endFill=0;" parent="1" source="db7eTrHwo0noK78gcjz7-4" target="db7eTrHwo0noK78gcjz7-12" edge="1">
          <mxGeometry relative="1" as="geometry" />
        </mxCell>
        <mxCell id="db7eTrHwo0noK78gcjz7-27" style="edgeStyle=orthogonalEdgeStyle;rounded=0;orthogonalLoop=1;jettySize=auto;html=1;exitX=1;exitY=1;exitDx=0;exitDy=0;endArrow=none;endFill=0;" parent="1" source="db7eTrHwo0noK78gcjz7-4" target="db7eTrHwo0noK78gcjz7-11" edge="1">
          <mxGeometry relative="1" as="geometry">
            <Array as="points">
              <mxPoint x="-140" y="300" />
              <mxPoint x="-20" y="300" />
            </Array>
          </mxGeometry>
        </mxCell>
        <mxCell id="db7eTrHwo0noK78gcjz7-4" value="Job Application" style="html=1;dashed=0;whiteSpace=wrap;" parent="1" vertex="1">
          <mxGeometry x="-240" y="260" width="100" height="50" as="geometry" />
        </mxCell>
        <mxCell id="db7eTrHwo0noK78gcjz7-22" style="edgeStyle=orthogonalEdgeStyle;rounded=0;orthogonalLoop=1;jettySize=auto;html=1;exitX=0;exitY=1;exitDx=0;exitDy=0;entryX=0.25;entryY=0;entryDx=0;entryDy=0;endArrow=none;endFill=0;" parent="1" source="db7eTrHwo0noK78gcjz7-5" target="db7eTrHwo0noK78gcjz7-6" edge="1">
          <mxGeometry relative="1" as="geometry">
            <Array as="points">
              <mxPoint x="-745" y="310" />
            </Array>
          </mxGeometry>
        </mxCell>
        <mxCell id="db7eTrHwo0noK78gcjz7-23" style="edgeStyle=orthogonalEdgeStyle;rounded=0;orthogonalLoop=1;jettySize=auto;html=1;exitX=0.25;exitY=1;exitDx=0;exitDy=0;entryX=0.5;entryY=0;entryDx=0;entryDy=0;endArrow=none;endFill=0;" parent="1" source="db7eTrHwo0noK78gcjz7-5" target="db7eTrHwo0noK78gcjz7-8" edge="1">
          <mxGeometry relative="1" as="geometry" />
        </mxCell>
        <mxCell id="db7eTrHwo0noK78gcjz7-5" value="Account Creation" style="html=1;dashed=0;whiteSpace=wrap;" parent="1" vertex="1">
          <mxGeometry x="-540" y="260" width="100" height="50" as="geometry" />
        </mxCell>
        <mxCell id="db7eTrHwo0noK78gcjz7-6" value="Add Basic Details" style="html=1;dashed=0;whiteSpace=wrap;" parent="1" vertex="1">
          <mxGeometry x="-770" y="450" width="100" height="50" as="geometry" />
        </mxCell>
        <mxCell id="db7eTrHwo0noK78gcjz7-7" value="Add Password" style="html=1;dashed=0;whiteSpace=wrap;" parent="1" vertex="1">
          <mxGeometry x="-510" y="450" width="100" height="50" as="geometry" />
        </mxCell>
        <mxCell id="db7eTrHwo0noK78gcjz7-8" value="Verify Details" style="html=1;dashed=0;whiteSpace=wrap;" parent="1" vertex="1">
          <mxGeometry x="-640" y="450" width="100" height="50" as="geometry" />
        </mxCell>
        <mxCell id="db7eTrHwo0noK78gcjz7-10" value="Job Selected" style="html=1;dashed=0;whiteSpace=wrap;" parent="1" vertex="1">
          <mxGeometry x="-330" y="450" width="100" height="50" as="geometry" />
        </mxCell>
        <mxCell id="db7eTrHwo0noK78gcjz7-11" value="Upload Resume" style="html=1;dashed=0;whiteSpace=wrap;" parent="1" vertex="1">
          <mxGeometry x="-70" y="450" width="100" height="50" as="geometry" />
        </mxCell>
        <mxCell id="db7eTrHwo0noK78gcjz7-12" value="Submit&lt;br&gt;Self-Declaration" style="html=1;dashed=0;whiteSpace=wrap;" parent="1" vertex="1">
          <mxGeometry x="-200" y="450" width="100" height="50" as="geometry" />
        </mxCell>
        <mxCell id="db7eTrHwo0noK78gcjz7-13" value="Approval" style="html=1;dashed=0;whiteSpace=wrap;" parent="1" vertex="1">
          <mxGeometry x="290" y="450" width="100" height="50" as="geometry" />
        </mxCell>
        <mxCell id="db7eTrHwo0noK78gcjz7-14" value="Upload Offer&lt;br&gt;Letter" style="html=1;dashed=0;whiteSpace=wrap;" parent="1" vertex="1">
          <mxGeometry x="160" y="450" width="100" height="50" as="geometry" />
        </mxCell>
        <mxCell id="db7eTrHwo0noK78gcjz7-24" style="edgeStyle=orthogonalEdgeStyle;rounded=0;orthogonalLoop=1;jettySize=auto;html=1;exitX=0.75;exitY=1;exitDx=0;exitDy=0;entryX=0.417;entryY=0.053;entryDx=0;entryDy=0;entryPerimeter=0;endArrow=none;endFill=0;" parent="1" source="db7eTrHwo0noK78gcjz7-5" target="db7eTrHwo0noK78gcjz7-7" edge="1">
          <mxGeometry relative="1" as="geometry">
            <Array as="points">
              <mxPoint x="-440" y="310" />
              <mxPoint x="-440" y="400" />
              <mxPoint x="-468" y="400" />
            </Array>
          </mxGeometry>
        </mxCell>
        <mxCell id="wjksb9bg_P6N--dJNT-M-3" value="" style="group;rotation=-225;" parent="1" vertex="1" connectable="0">
          <mxGeometry x="-640" y="390" width="40" height="40" as="geometry" />
        </mxCell>
        <mxCell id="wjksb9bg_P6N--dJNT-M-1" value="" style="ellipse;whiteSpace=wrap;html=1;aspect=fixed;rotation=-225;" parent="wjksb9bg_P6N--dJNT-M-3" vertex="1">
          <mxGeometry x="10" y="-4" width="20" height="20" as="geometry" />
        </mxCell>
        <mxCell id="wjksb9bg_P6N--dJNT-M-2" value="" style="endArrow=classic;html=1;rounded=0;" parent="wjksb9bg_P6N--dJNT-M-3" edge="1">
          <mxGeometry width="50" height="50" relative="1" as="geometry">
            <mxPoint x="20" y="6" as="sourcePoint" />
            <mxPoint x="20" y="48" as="targetPoint" />
          </mxGeometry>
        </mxCell>
        <mxCell id="wjksb9bg_P6N--dJNT-M-8" value="Student Details" style="edgeLabel;html=1;align=center;verticalAlign=middle;resizable=0;points=[];" parent="wjksb9bg_P6N--dJNT-M-2" vertex="1" connectable="0">
          <mxGeometry x="-0.0311" y="2" relative="1" as="geometry">
            <mxPoint x="-2" y="-56" as="offset" />
          </mxGeometry>
        </mxCell>
        <mxCell id="wjksb9bg_P6N--dJNT-M-4" value="" style="group;rotation=-45;" parent="1" vertex="1" connectable="0">
          <mxGeometry x="-740" y="370" width="40" height="40" as="geometry" />
        </mxCell>
        <mxCell id="wjksb9bg_P6N--dJNT-M-6" value="" style="endArrow=classic;html=1;rounded=0;" parent="wjksb9bg_P6N--dJNT-M-4" edge="1">
          <mxGeometry width="50" height="50" relative="1" as="geometry">
            <mxPoint x="20" y="34" as="sourcePoint" />
            <mxPoint x="20" y="-8" as="targetPoint" />
          </mxGeometry>
        </mxCell>
        <mxCell id="wjksb9bg_P6N--dJNT-M-7" value="Students Details" style="edgeLabel;html=1;align=center;verticalAlign=middle;resizable=0;points=[];rotation=0;" parent="wjksb9bg_P6N--dJNT-M-6" vertex="1" connectable="0">
          <mxGeometry x="-0.3377" y="-3" relative="1" as="geometry">
            <mxPoint x="8" y="38" as="offset" />
          </mxGeometry>
        </mxCell>
        <mxCell id="wjksb9bg_P6N--dJNT-M-5" value="" style="ellipse;whiteSpace=wrap;html=1;aspect=fixed;rotation=-45;" parent="wjksb9bg_P6N--dJNT-M-4" vertex="1">
          <mxGeometry x="10" y="24" width="20" height="20" as="geometry" />
        </mxCell>
        <mxCell id="wjksb9bg_P6N--dJNT-M-14" value="" style="group;rotation=-45;" parent="1" vertex="1" connectable="0">
          <mxGeometry x="-280" y="320" width="40" height="40" as="geometry" />
        </mxCell>
        <mxCell id="wjksb9bg_P6N--dJNT-M-15" value="" style="endArrow=classic;html=1;rounded=0;" parent="wjksb9bg_P6N--dJNT-M-14" edge="1">
          <mxGeometry width="50" height="50" relative="1" as="geometry">
            <mxPoint x="20" y="34" as="sourcePoint" />
            <mxPoint x="20" y="-8" as="targetPoint" />
          </mxGeometry>
        </mxCell>
        <mxCell id="wjksb9bg_P6N--dJNT-M-16" value="Job Details" style="edgeLabel;html=1;align=center;verticalAlign=middle;resizable=0;points=[];rotation=0;" parent="wjksb9bg_P6N--dJNT-M-15" vertex="1" connectable="0">
          <mxGeometry x="-0.3377" y="-3" relative="1" as="geometry">
            <mxPoint x="-33" as="offset" />
          </mxGeometry>
        </mxCell>
        <mxCell id="wjksb9bg_P6N--dJNT-M-17" value="" style="ellipse;whiteSpace=wrap;html=1;aspect=fixed;rotation=-45;" parent="wjksb9bg_P6N--dJNT-M-14" vertex="1">
          <mxGeometry x="10" y="24" width="20" height="20" as="geometry" />
        </mxCell>
        <mxCell id="wjksb9bg_P6N--dJNT-M-22" value="" style="group;rotation=135;" parent="1" vertex="1" connectable="0">
          <mxGeometry x="-480" y="320" width="40" height="40" as="geometry" />
        </mxCell>
        <mxCell id="wjksb9bg_P6N--dJNT-M-23" value="" style="endArrow=classic;html=1;rounded=0;" parent="wjksb9bg_P6N--dJNT-M-22" edge="1">
          <mxGeometry width="50" height="50" relative="1" as="geometry">
            <mxPoint x="20" y="6" as="sourcePoint" />
            <mxPoint x="20" y="48" as="targetPoint" />
          </mxGeometry>
        </mxCell>
        <mxCell id="wjksb9bg_P6N--dJNT-M-24" value="Password" style="edgeLabel;html=1;align=center;verticalAlign=middle;resizable=0;points=[];rotation=0;" parent="wjksb9bg_P6N--dJNT-M-23" vertex="1" connectable="0">
          <mxGeometry x="-0.3377" y="-3" relative="1" as="geometry">
            <mxPoint x="-27" y="10" as="offset" />
          </mxGeometry>
        </mxCell>
        <mxCell id="wjksb9bg_P6N--dJNT-M-25" value="" style="ellipse;whiteSpace=wrap;html=1;aspect=fixed;rotation=135;" parent="wjksb9bg_P6N--dJNT-M-22" vertex="1">
          <mxGeometry x="10" y="-4" width="20" height="20" as="geometry" />
        </mxCell>
        <mxCell id="wjksb9bg_P6N--dJNT-M-26" value="" style="group;rotation=-225;" parent="1" vertex="1" connectable="0">
          <mxGeometry x="-230" y="210" width="40" height="40" as="geometry" />
        </mxCell>
        <mxCell id="wjksb9bg_P6N--dJNT-M-27" value="" style="endArrow=classic;html=1;rounded=0;" parent="wjksb9bg_P6N--dJNT-M-26" edge="1">
          <mxGeometry width="50" height="50" relative="1" as="geometry">
            <mxPoint x="20" y="6" as="sourcePoint" />
            <mxPoint x="21" y="48" as="targetPoint" />
          </mxGeometry>
        </mxCell>
        <mxCell id="wjksb9bg_P6N--dJNT-M-28" value="Student Id" style="edgeLabel;html=1;align=center;verticalAlign=middle;resizable=0;points=[];rotation=1;" parent="wjksb9bg_P6N--dJNT-M-27" vertex="1" connectable="0">
          <mxGeometry x="-0.3377" y="-3" relative="1" as="geometry">
            <mxPoint x="-7" y="-30" as="offset" />
          </mxGeometry>
        </mxCell>
        <mxCell id="wjksb9bg_P6N--dJNT-M-29" value="" style="ellipse;whiteSpace=wrap;html=1;aspect=fixed;rotation=-225;" parent="wjksb9bg_P6N--dJNT-M-26" vertex="1">
          <mxGeometry x="10" y="-4" width="20" height="20" as="geometry" />
        </mxCell>
        <mxCell id="wjksb9bg_P6N--dJNT-M-31" value="" style="group" parent="1" vertex="1" connectable="0">
          <mxGeometry x="-580" y="380" width="20" height="50" as="geometry" />
        </mxCell>
        <mxCell id="wjksb9bg_P6N--dJNT-M-9" value="" style="ellipse;whiteSpace=wrap;html=1;aspect=fixed;fillColor=#000000;" parent="wjksb9bg_P6N--dJNT-M-31" vertex="1">
          <mxGeometry y="30" width="20" height="20" as="geometry" />
        </mxCell>
        <mxCell id="wjksb9bg_P6N--dJNT-M-11" value="" style="endArrow=classic;html=1;rounded=0;movable=1;resizable=1;rotatable=1;deletable=1;editable=1;locked=0;connectable=1;" parent="wjksb9bg_P6N--dJNT-M-31" edge="1">
          <mxGeometry width="50" height="50" relative="1" as="geometry">
            <mxPoint x="9.830000000000041" y="50" as="sourcePoint" />
            <mxPoint x="10.090000000000032" as="targetPoint" />
          </mxGeometry>
        </mxCell>
        <mxCell id="wjksb9bg_P6N--dJNT-M-13" value="Verify Details" style="edgeLabel;html=1;align=center;verticalAlign=middle;resizable=0;points=[];" parent="wjksb9bg_P6N--dJNT-M-11" vertex="1" connectable="0">
          <mxGeometry x="0.3951" y="-1" relative="1" as="geometry">
            <mxPoint x="34" y="1" as="offset" />
          </mxGeometry>
        </mxCell>
        <mxCell id="wjksb9bg_P6N--dJNT-M-32" value="" style="group" parent="1" vertex="1" connectable="0">
          <mxGeometry x="160" y="390" width="20" height="50" as="geometry" />
        </mxCell>
        <mxCell id="wjksb9bg_P6N--dJNT-M-33" value="" style="ellipse;whiteSpace=wrap;html=1;aspect=fixed;fillColor=#000000;" parent="wjksb9bg_P6N--dJNT-M-32" vertex="1">
          <mxGeometry y="30" width="20" height="20" as="geometry" />
        </mxCell>
        <mxCell id="wjksb9bg_P6N--dJNT-M-34" value="" style="endArrow=classic;html=1;rounded=0;movable=1;resizable=1;rotatable=1;deletable=1;editable=1;locked=0;connectable=1;" parent="wjksb9bg_P6N--dJNT-M-32" edge="1">
          <mxGeometry width="50" height="50" relative="1" as="geometry">
            <mxPoint x="9.830000000000041" y="50" as="sourcePoint" />
            <mxPoint x="10.090000000000032" as="targetPoint" />
          </mxGeometry>
        </mxCell>
        <mxCell id="wjksb9bg_P6N--dJNT-M-35" value="Verify Offer Letter" style="edgeLabel;html=1;align=center;verticalAlign=middle;resizable=0;points=[];" parent="wjksb9bg_P6N--dJNT-M-34" vertex="1" connectable="0">
          <mxGeometry x="0.3951" y="-1" relative="1" as="geometry">
            <mxPoint x="-31" y="-25" as="offset" />
          </mxGeometry>
        </mxCell>
        <mxCell id="wjksb9bg_P6N--dJNT-M-38" value="" style="group;rotation=-45;" parent="1" vertex="1" connectable="0">
          <mxGeometry x="-190" y="395" width="40" height="40" as="geometry" />
        </mxCell>
        <mxCell id="wjksb9bg_P6N--dJNT-M-39" value="" style="endArrow=classic;html=1;rounded=0;" parent="wjksb9bg_P6N--dJNT-M-38" edge="1">
          <mxGeometry width="50" height="50" relative="1" as="geometry">
            <mxPoint x="20" y="34" as="sourcePoint" />
            <mxPoint x="20" y="-8" as="targetPoint" />
          </mxGeometry>
        </mxCell>
        <mxCell id="wjksb9bg_P6N--dJNT-M-40" value="Self Declaration" style="edgeLabel;html=1;align=center;verticalAlign=middle;resizable=0;points=[];rotation=0;" parent="wjksb9bg_P6N--dJNT-M-39" vertex="1" connectable="0">
          <mxGeometry x="-0.3377" y="-3" relative="1" as="geometry">
            <mxPoint x="-43" y="-5" as="offset" />
          </mxGeometry>
        </mxCell>
        <mxCell id="wjksb9bg_P6N--dJNT-M-41" value="" style="ellipse;whiteSpace=wrap;html=1;aspect=fixed;rotation=-45;" parent="wjksb9bg_P6N--dJNT-M-38" vertex="1">
          <mxGeometry x="10" y="24" width="20" height="20" as="geometry" />
        </mxCell>
        <mxCell id="wjksb9bg_P6N--dJNT-M-42" value="" style="group;rotation=-45;" parent="1" vertex="1" connectable="0">
          <mxGeometry x="-425" y="390" width="40" height="40" as="geometry" />
        </mxCell>
        <mxCell id="wjksb9bg_P6N--dJNT-M-43" value="" style="endArrow=classic;html=1;rounded=0;" parent="wjksb9bg_P6N--dJNT-M-42" edge="1">
          <mxGeometry width="50" height="50" relative="1" as="geometry">
            <mxPoint x="20" y="34" as="sourcePoint" />
            <mxPoint x="20" y="-8" as="targetPoint" />
          </mxGeometry>
        </mxCell>
        <mxCell id="wjksb9bg_P6N--dJNT-M-44" value="Student Id" style="edgeLabel;html=1;align=center;verticalAlign=middle;resizable=0;points=[];rotation=0;" parent="wjksb9bg_P6N--dJNT-M-43" vertex="1" connectable="0">
          <mxGeometry x="-0.3377" y="-3" relative="1" as="geometry">
            <mxPoint x="8" y="38" as="offset" />
          </mxGeometry>
        </mxCell>
        <mxCell id="wjksb9bg_P6N--dJNT-M-45" value="" style="ellipse;whiteSpace=wrap;html=1;aspect=fixed;rotation=-45;" parent="wjksb9bg_P6N--dJNT-M-42" vertex="1">
          <mxGeometry x="10" y="24" width="20" height="20" as="geometry" />
        </mxCell>
        <mxCell id="wjksb9bg_P6N--dJNT-M-46" value="" style="group;rotation=135;" parent="1" vertex="1" connectable="0">
          <mxGeometry x="-60" y="330" width="40" height="40" as="geometry" />
        </mxCell>
        <mxCell id="wjksb9bg_P6N--dJNT-M-47" value="" style="endArrow=classic;html=1;rounded=0;" parent="wjksb9bg_P6N--dJNT-M-46" edge="1">
          <mxGeometry width="50" height="50" relative="1" as="geometry">
            <mxPoint x="20" y="6" as="sourcePoint" />
            <mxPoint x="20" y="48" as="targetPoint" />
          </mxGeometry>
        </mxCell>
        <mxCell id="wjksb9bg_P6N--dJNT-M-48" value="Job details and resume" style="edgeLabel;html=1;align=center;verticalAlign=middle;resizable=0;points=[];rotation=0;" parent="wjksb9bg_P6N--dJNT-M-47" vertex="1" connectable="0">
          <mxGeometry x="-0.3377" y="-3" relative="1" as="geometry">
            <mxPoint x="-43" y="-5" as="offset" />
          </mxGeometry>
        </mxCell>
        <mxCell id="wjksb9bg_P6N--dJNT-M-49" value="" style="ellipse;whiteSpace=wrap;html=1;aspect=fixed;rotation=135;" parent="wjksb9bg_P6N--dJNT-M-46" vertex="1">
          <mxGeometry x="10" y="-4" width="20" height="20" as="geometry" />
        </mxCell>
        <mxCell id="wjksb9bg_P6N--dJNT-M-50" value="" style="group;rotation=-45;" parent="1" vertex="1" connectable="0">
          <mxGeometry x="-20" y="360" width="40" height="40" as="geometry" />
        </mxCell>
        <mxCell id="wjksb9bg_P6N--dJNT-M-51" value="" style="endArrow=classic;html=1;rounded=0;" parent="wjksb9bg_P6N--dJNT-M-50" edge="1">
          <mxGeometry width="50" height="50" relative="1" as="geometry">
            <mxPoint x="20" y="34" as="sourcePoint" />
            <mxPoint x="20" y="-8" as="targetPoint" />
          </mxGeometry>
        </mxCell>
        <mxCell id="wjksb9bg_P6N--dJNT-M-52" value="Application no." style="edgeLabel;html=1;align=center;verticalAlign=middle;resizable=0;points=[];rotation=0;" parent="wjksb9bg_P6N--dJNT-M-51" vertex="1" connectable="0">
          <mxGeometry x="-0.3377" y="-3" relative="1" as="geometry">
            <mxPoint x="37" as="offset" />
          </mxGeometry>
        </mxCell>
        <mxCell id="wjksb9bg_P6N--dJNT-M-53" value="" style="ellipse;whiteSpace=wrap;html=1;aspect=fixed;rotation=-45;" parent="wjksb9bg_P6N--dJNT-M-50" vertex="1">
          <mxGeometry x="10" y="24" width="20" height="20" as="geometry" />
        </mxCell>
        <mxCell id="wjksb9bg_P6N--dJNT-M-54" value="" style="group;rotation=-45;" parent="1" vertex="1" connectable="0">
          <mxGeometry x="-180" y="210" width="40" height="40" as="geometry" />
        </mxCell>
        <mxCell id="wjksb9bg_P6N--dJNT-M-55" value="" style="endArrow=classic;html=1;rounded=0;" parent="wjksb9bg_P6N--dJNT-M-54" edge="1">
          <mxGeometry width="50" height="50" relative="1" as="geometry">
            <mxPoint x="20" y="34" as="sourcePoint" />
            <mxPoint x="20" y="-8" as="targetPoint" />
          </mxGeometry>
        </mxCell>
        <mxCell id="wjksb9bg_P6N--dJNT-M-56" value="Application no." style="edgeLabel;html=1;align=center;verticalAlign=middle;resizable=0;points=[];rotation=0;" parent="wjksb9bg_P6N--dJNT-M-55" vertex="1" connectable="0">
          <mxGeometry x="-0.3377" y="-3" relative="1" as="geometry">
            <mxPoint x="37" as="offset" />
          </mxGeometry>
        </mxCell>
        <mxCell id="wjksb9bg_P6N--dJNT-M-57" value="" style="ellipse;whiteSpace=wrap;html=1;aspect=fixed;rotation=-45;" parent="wjksb9bg_P6N--dJNT-M-54" vertex="1">
          <mxGeometry x="10" y="24" width="20" height="20" as="geometry" />
        </mxCell>
        <mxCell id="wjksb9bg_P6N--dJNT-M-58" value="" style="group;rotation=135;" parent="1" vertex="1" connectable="0">
          <mxGeometry x="560" y="150" width="40" height="40" as="geometry" />
        </mxCell>
        <mxCell id="wjksb9bg_P6N--dJNT-M-61" value="" style="ellipse;whiteSpace=wrap;html=1;aspect=fixed;rotation=135;" parent="wjksb9bg_P6N--dJNT-M-58" vertex="1">
          <mxGeometry x="10" y="-4" width="20" height="20" as="geometry" />
        </mxCell>
        <mxCell id="wjksb9bg_P6N--dJNT-M-59" value="" style="endArrow=classic;html=1;rounded=0;" parent="1" edge="1">
          <mxGeometry width="50" height="50" relative="1" as="geometry">
            <mxPoint x="579.52" y="168" as="sourcePoint" />
            <mxPoint x="579.52" y="210" as="targetPoint" />
          </mxGeometry>
        </mxCell>
        <mxCell id="wjksb9bg_P6N--dJNT-M-60" value="Application Status" style="edgeLabel;html=1;align=center;verticalAlign=middle;resizable=0;points=[];rotation=0;" parent="wjksb9bg_P6N--dJNT-M-59" vertex="1" connectable="0">
          <mxGeometry x="-0.3377" y="-3" relative="1" as="geometry">
            <mxPoint x="53" y="-5" as="offset" />
          </mxGeometry>
        </mxCell>
        <mxCell id="wjksb9bg_P6N--dJNT-M-67" value="" style="group;rotation=-45;" parent="1" vertex="1" connectable="0">
          <mxGeometry x="280" y="346" width="40" height="40" as="geometry" />
        </mxCell>
        <mxCell id="wjksb9bg_P6N--dJNT-M-68" value="" style="endArrow=classic;html=1;rounded=0;" parent="wjksb9bg_P6N--dJNT-M-67" edge="1">
          <mxGeometry width="50" height="50" relative="1" as="geometry">
            <mxPoint x="20" y="34" as="sourcePoint" />
            <mxPoint x="20" y="-8" as="targetPoint" />
          </mxGeometry>
        </mxCell>
        <mxCell id="wjksb9bg_P6N--dJNT-M-69" value="Application Status" style="edgeLabel;html=1;align=center;verticalAlign=middle;resizable=0;points=[];rotation=0;" parent="wjksb9bg_P6N--dJNT-M-68" vertex="1" connectable="0">
          <mxGeometry x="-0.3377" y="-3" relative="1" as="geometry">
            <mxPoint x="-33" y="38" as="offset" />
          </mxGeometry>
        </mxCell>
        <mxCell id="wjksb9bg_P6N--dJNT-M-70" value="" style="ellipse;whiteSpace=wrap;html=1;aspect=fixed;rotation=-45;" parent="wjksb9bg_P6N--dJNT-M-67" vertex="1">
          <mxGeometry x="10" y="24" width="20" height="20" as="geometry" />
        </mxCell>
        <mxCell id="wjksb9bg_P6N--dJNT-M-75" value="" style="group;rotation=-225;" parent="1" vertex="1" connectable="0">
          <mxGeometry x="330" y="380" width="40" height="40" as="geometry" />
        </mxCell>
        <mxCell id="wjksb9bg_P6N--dJNT-M-76" value="" style="endArrow=classic;html=1;rounded=0;" parent="wjksb9bg_P6N--dJNT-M-75" edge="1">
          <mxGeometry width="50" height="50" relative="1" as="geometry">
            <mxPoint x="20" y="6" as="sourcePoint" />
            <mxPoint x="21" y="48" as="targetPoint" />
          </mxGeometry>
        </mxCell>
        <mxCell id="wjksb9bg_P6N--dJNT-M-77" value="Application no and Offer Letter" style="edgeLabel;html=1;align=center;verticalAlign=middle;resizable=0;points=[];rotation=1;" parent="wjksb9bg_P6N--dJNT-M-76" vertex="1" connectable="0">
          <mxGeometry x="-0.3377" y="-3" relative="1" as="geometry">
            <mxPoint x="83" as="offset" />
          </mxGeometry>
        </mxCell>
        <mxCell id="wjksb9bg_P6N--dJNT-M-78" value="" style="ellipse;whiteSpace=wrap;html=1;aspect=fixed;rotation=-225;" parent="wjksb9bg_P6N--dJNT-M-75" vertex="1">
          <mxGeometry x="10" y="-4" width="20" height="20" as="geometry" />
        </mxCell>
        <mxCell id="wjksb9bg_P6N--dJNT-M-79" value="" style="group;rotation=135;" parent="1" vertex="1" connectable="0">
          <mxGeometry x="220" y="200" width="40" height="40" as="geometry" />
        </mxCell>
        <mxCell id="wjksb9bg_P6N--dJNT-M-80" value="" style="endArrow=classic;html=1;rounded=0;" parent="wjksb9bg_P6N--dJNT-M-79" edge="1">
          <mxGeometry width="50" height="50" relative="1" as="geometry">
            <mxPoint x="20" y="6" as="sourcePoint" />
            <mxPoint x="20" y="48" as="targetPoint" />
          </mxGeometry>
        </mxCell>
        <mxCell id="wjksb9bg_P6N--dJNT-M-81" value="Application no." style="edgeLabel;html=1;align=center;verticalAlign=middle;resizable=0;points=[];rotation=0;" parent="wjksb9bg_P6N--dJNT-M-80" vertex="1" connectable="0">
          <mxGeometry x="-0.3377" y="-3" relative="1" as="geometry">
            <mxPoint x="-37" as="offset" />
          </mxGeometry>
        </mxCell>
        <mxCell id="wjksb9bg_P6N--dJNT-M-82" value="" style="ellipse;whiteSpace=wrap;html=1;aspect=fixed;rotation=135;" parent="wjksb9bg_P6N--dJNT-M-79" vertex="1">
          <mxGeometry x="10" y="-4" width="20" height="20" as="geometry" />
        </mxCell>
        <mxCell id="wjksb9bg_P6N--dJNT-M-83" value="" style="group;rotation=-45;" parent="1" vertex="1" connectable="0">
          <mxGeometry x="270" y="180" width="40" height="40" as="geometry" />
        </mxCell>
        <mxCell id="wjksb9bg_P6N--dJNT-M-84" value="" style="endArrow=classic;html=1;rounded=0;" parent="wjksb9bg_P6N--dJNT-M-83" edge="1">
          <mxGeometry width="50" height="50" relative="1" as="geometry">
            <mxPoint x="20" y="34" as="sourcePoint" />
            <mxPoint x="20" y="-8" as="targetPoint" />
          </mxGeometry>
        </mxCell>
        <mxCell id="wjksb9bg_P6N--dJNT-M-85" value="Application Status" style="edgeLabel;html=1;align=center;verticalAlign=middle;resizable=0;points=[];rotation=0;" parent="wjksb9bg_P6N--dJNT-M-84" vertex="1" connectable="0">
          <mxGeometry x="-0.3377" y="-3" relative="1" as="geometry">
            <mxPoint x="47" y="-4" as="offset" />
          </mxGeometry>
        </mxCell>
        <mxCell id="wjksb9bg_P6N--dJNT-M-86" value="" style="ellipse;whiteSpace=wrap;html=1;aspect=fixed;rotation=-45;" parent="wjksb9bg_P6N--dJNT-M-83" vertex="1">
          <mxGeometry x="10" y="24" width="20" height="20" as="geometry" />
        </mxCell>
      </root>
    </mxGraphModel>
  </diagram>
</mxfile>
